<group>
loop_mode=no_loop
ampeg_release=0.250

<region>
sample=Violin.Gn2.wav
pitch_keycenter=55
lokey=0
hikey=55
tune=0

<region>
sample=Violin.Gs2.wav
pitch_keycenter=56
lokey=56
hikey=56
tune=0

<region>
sample=Violin.An2.wav
pitch_keycenter=57
lokey=57
hikey=57
tune=0

<region>
sample=Violin.As2.wav
pitch_keycenter=58
lokey=58
hikey=58
tune=0

<region>
sample=Violin.Bn2.wav
pitch_keycenter=59
lokey=59
hikey=59
tune=0

<region>
sample=Violin.Cn3.wav
pitch_keycenter=60
lokey=60
hikey=60
tune=0

<region>
sample=Violin.Cs3.wav
pitch_keycenter=61
lokey=61
hikey=61
tune=0

<region>
sample=Violin.Dn3.wav
pitch_keycenter=62
lokey=62
hikey=62
tune=0

<region>
sample=Violin.Ds3.wav
pitch_keycenter=63
lokey=63
hikey=63
tune=0

<region>
sample=Violin.En3.wav
pitch_keycenter=64
lokey=64
hikey=64
tune=0

<region>
sample=Violin.Fn3.wav
pitch_keycenter=65
lokey=65
hikey=65
tune=0

<region>
sample=Violin.Fs3.wav
pitch_keycenter=66
lokey=66
hikey=66
tune=0

<region>
sample=Violin.Gn3.wav
pitch_keycenter=67
lokey=67
hikey=67
tune=0

<region>
sample=Violin.Gs3.wav
pitch_keycenter=68
lokey=68
hikey=68
tune=0

<region>
sample=Violin.An3.wav
pitch_keycenter=69
lokey=69
hikey=69
tune=0

<region>
sample=Violin.As3.wav
pitch_keycenter=70
lokey=70
hikey=70
tune=0

<region>
sample=Violin.Bn3.wav
pitch_keycenter=71
lokey=71
hikey=71
tune=0

<region>
sample=Violin.Cn4.wav
pitch_keycenter=72
lokey=72
hikey=72
tune=0

<region>
sample=Violin.Cs4.wav
pitch_keycenter=73
lokey=73
hikey=73
tune=0

<region>
sample=Violin.Dn4.wav
pitch_keycenter=74
lokey=74
hikey=74
tune=0

<region>
sample=Violin.Ds4.wav
pitch_keycenter=75
lokey=75
hikey=75
tune=0

<region>
sample=Violin.En4.wav
pitch_keycenter=76
lokey=76
hikey=76
tune=0

<region>
sample=Violin.Fn4.wav
pitch_keycenter=77
lokey=77
hikey=77
tune=0

<region>
sample=Violin.Fs4.wav
pitch_keycenter=78
lokey=78
hikey=78
tune=0

<region>
sample=Violin.Gn4.wav
pitch_keycenter=79
lokey=79
hikey=79
tune=0

<region>
sample=Violin.Gs4.wav
pitch_keycenter=80
lokey=80
hikey=80
tune=0

<region>
sample=Violin.An4.wav
pitch_keycenter=81
lokey=81
hikey=81
tune=0

<region>
sample=Violin.As4.wav
pitch_keycenter=82
lokey=82
hikey=82
tune=0

<region>
sample=Violin.Bn4.wav
pitch_keycenter=83
lokey=83
hikey=83
tune=0

<region>
sample=Violin.Cn5.wav
pitch_keycenter=84
lokey=84
hikey=84
tune=0

<region>
sample=Violin.Cs5.wav
pitch_keycenter=85
lokey=85
hikey=85
tune=0

<region>
sample=Violin.Dn5.wav
pitch_keycenter=86
lokey=86
hikey=86
tune=0

<region>
sample=Violin.Ds5.wav
pitch_keycenter=87
lokey=87
hikey=87
tune=0

<region>
sample=Violin.En5.wav
pitch_keycenter=88
lokey=88
hikey=127
tune=0


